<svg width="16" height="18" viewBox="0 0 16 18" fill="none" xmlns="http://www.w3.org/2000/svg">
<path id="add unit icon" d="M8 0.0551453C3.58144 0.0551453 0 3.88654 0 8.61348C0 13.3404 3.58144 17.1718 8 17.1718C12.4186 17.1718 16 13.3404 16 8.61348C16 3.88654 12.4186 0.0551453 8 0.0551453ZM12.16 9.29814H8.64V13.0638C8.64 13.2454 8.57257 13.4195 8.45255 13.5479C8.33252 13.6763 8.16974 13.7485 8 13.7485C7.83026 13.7485 7.66747 13.6763 7.54745 13.5479C7.42743 13.4195 7.36 13.2454 7.36 13.0638V9.29814H3.84C3.67026 9.29814 3.50747 9.22601 3.38745 9.09761C3.26743 8.96921 3.2 8.79506 3.2 8.61348C3.2 8.43189 3.26743 8.25774 3.38745 8.12934C3.50747 8.00095 3.67026 7.92881 3.84 7.92881H7.36V4.16314C7.36 3.98156 7.42743 3.80741 7.54745 3.67901C7.66747 3.55061 7.83026 3.47848 8 3.47848C8.16974 3.47848 8.33252 3.55061 8.45255 3.67901C8.57257 3.80741 8.64 3.98156 8.64 4.16314V7.92881H12.16C12.3297 7.92881 12.4925 8.00095 12.6125 8.12934C12.7326 8.25774 12.8 8.43189 12.8 8.61348C12.8 8.79506 12.7326 8.96921 12.6125 9.09761C12.4925 9.22601 12.3297 9.29814 12.16 9.29814Z" fill="#A8A8AD"/>
</svg>
