<svg width="24" height="14" viewBox="0 0 24 14" fill="none" xmlns="http://www.w3.org/2000/svg">
<path d="M3.60276e-09 6.99071C0.00201412 7.24973 0.104558 7.49785 0.286 7.68271L0.292 7.69471L6.292 13.6947C6.4806 13.8769 6.7332 13.9777 6.9954 13.9754C7.2576 13.9731 7.50841 13.8679 7.69382 13.6825C7.87923 13.4971 7.9844 13.2463 7.98667 12.9841C7.98895 12.7219 7.88816 12.4693 7.706 12.2807L3.414 7.98671H23C23.2652 7.98671 23.5196 7.88135 23.7071 7.69382C23.8946 7.50628 24 7.25193 24 6.98671C24 6.7215 23.8946 6.46714 23.7071 6.27961C23.5196 6.09207 23.2652 5.98671 23 5.98671H3.414L7.706 1.69471C7.88816 1.50611 7.98895 1.25351 7.98667 0.991311C7.9844 0.729114 7.87923 0.478301 7.69382 0.292893C7.50841 0.107485 7.2576 0.00231622 6.9954 3.78026e-05C6.7332 -0.00224062 6.4806 0.0985537 6.292 0.280712L0.292 6.28071L0.286 6.29071C0.196977 6.38091 0.126334 6.48756 0.0780001 6.60471C0.0265202 6.72549 -1.12881e-05 6.85542 3.60276e-09 6.98671V6.99071Z" fill="#A8A8AD"/>
</svg>
