<svg width="48" height="48" viewBox="0 0 48 48" fill="none" xmlns="http://www.w3.org/2000/svg">
<g clip-path="url(#clip0_755_2075)">
<path d="M24.558 3.33898C24.1998 3.19544 23.8002 3.19544 23.442 3.33898L5.538 10.5L24 17.883L42.462 10.5L24.558 3.33898ZM45 12.717L25.5 20.517V44.283L45 36.483V12.717ZM22.5 44.286V20.514L3 12.717V36.486L22.5 44.286ZM22.329 0.551976C23.4017 0.122974 24.5983 0.122974 25.671 0.551976L47.058 9.10798C47.3361 9.21941 47.5744 9.41155 47.7423 9.65965C47.9102 9.90774 47.9999 10.2004 48 10.5V36.486C47.9996 37.0854 47.8197 37.6711 47.4833 38.1673C47.147 38.6635 46.6697 39.0476 46.113 39.27L24.558 47.892C24.1998 48.0355 23.8002 48.0355 23.442 47.892L1.89 39.27C1.33275 39.048 0.854827 38.6642 0.517926 38.1679C0.181025 37.6716 0.000618988 37.0858 0 36.486L0 10.5C6.97198e-05 10.2004 0.0898312 9.90774 0.257721 9.65965C0.425611 9.41155 0.663938 9.21941 0.942 9.10798L22.329 0.551976Z" fill="white"/>
</g>
<defs>
<clipPath id="clip0_755_2075">
<rect width="48" height="48" fill="white"/>
</clipPath>
</defs>
</svg>
