<svg width="78" height="58" viewBox="0 0 78 58" fill="none" xmlns="http://www.w3.org/2000/svg">
<path d="M1.01412 52C1.09887 52.5971 1.24011 53.1796 1.45198 53.6311C1.83333 54.432 2.20057 54.5049 3.64124 54.432C5.50565 54.3447 8.17514 54.432 11 54.5485C11 55.3495 10.9718 55.7282 10.9718 55.7282C10.7881 57.9272 9.82768 58 9.44633 58H3.37288C2.83616 58 2.38418 58 1.96045 57.7379C1.45198 57.432 1.25424 56.4272 1.07062 54.7233C1.04237 54.4757 1.02825 54.1553 1.01412 53.7767V53.7621C1.01412 53.6456 1 53.5 1 53.3398V53.1796C1.01412 52.7864 1.01412 52.3495 1.01412 52Z" fill="#A8A8AD"/>
<path d="M76.9859 52C76.9011 52.5971 76.7599 53.1796 76.548 53.6311C76.1667 54.432 75.7994 54.5049 74.3588 54.432C72.4944 54.3447 69.8249 54.432 67 54.5485C67 55.3495 67.0282 55.7282 67.0282 55.7282C67.2119 57.9272 68.1723 58 68.5537 58H74.6271C75.1638 58 75.6582 58 76.0395 57.7379C76.5339 57.4029 76.7458 56.4272 76.9294 54.7233C76.9576 54.4757 76.9718 54.1553 76.9859 53.7767V53.7621C76.9859 53.6456 77 53.5 77 53.3398V53.1796C77 52.7864 77 52.3495 76.9859 52Z" fill="#A8A8AD"/>
<path d="M78 35.6685C78 30.6083 77.3906 25.6635 77.1469 25.1196C76.9641 24.724 75.791 23.6856 73.125 21.7241C70.4285 19.7297 70.4895 20.0264 70.002 18.7243C70.4438 18.576 70.8703 18.2958 71.1293 18.2628C71.7082 18.1969 71.7387 18.7902 72.9422 18.7902C74.1457 18.7902 76.7508 18.4441 77.284 17.8672C77.8172 17.2903 77.9848 17.0925 77.9848 16.5816C77.9848 16.0706 77.7105 15.0157 77.1926 14.3894C76.6746 13.763 74.4656 13.4499 73.1707 13.2685C71.8758 13.0872 71.693 13.2685 71.3578 13.4993C70.8246 13.8619 70.7941 17.1749 70.7941 17.1749L69.5297 17.2079C68.707 15.0157 67.5645 10.5984 65.782 7.12051C63.832 3.3295 61.7906 2.14275 60.9375 1.84606C60.0996 1.56585 59.3379 1.36806 53.625 0.74172C47.7902 0.0824133 43.1438 0 39 0C34.8562 0 30.2098 0.0988959 24.375 0.74172C18.6621 1.38454 17.9004 1.56585 17.0625 1.84606C16.2246 2.12626 14.168 3.3295 12.218 7.12051C10.4355 10.5984 9.29297 15.0157 8.47031 17.2079L7.20586 17.1749C7.20586 17.1749 7.19062 13.8619 6.64219 13.4993C6.30703 13.2685 6.12422 13.0707 4.8293 13.2685C3.53438 13.4663 1.32539 13.763 0.807422 14.3894C0.289453 15.0157 0.0152344 16.0706 0.0152344 16.5816C0.0152344 17.0925 0.182812 17.3068 0.716016 17.8672C1.24922 18.4441 3.8543 18.7902 5.05781 18.7902C6.26133 18.7902 6.2918 18.1969 6.8707 18.2628C7.12969 18.2958 7.57148 18.576 7.99805 18.7243C7.49531 20.0264 7.57148 19.7297 4.875 21.7241C2.20898 23.7021 1.0207 24.724 0.853125 25.1196C0.609375 25.6635 0 30.6083 0 35.6685C0 40.7287 0.335156 45.2779 0.335156 46.8932C0.335156 47.569 0.335156 48.7557 0.472266 49.893C0.563672 50.5688 0.700781 51.2281 0.944531 51.7391C1.35586 52.6456 1.73672 52.728 3.30586 52.6456C5.3168 52.5467 8.22656 52.6456 11.2277 52.7775C13.2387 52.8599 15.2953 52.9423 17.1234 52.9918C21.6938 53.0906 20.3531 52.2665 22.3031 52.2995C24.2531 52.3324 31.9465 52.6786 38.9848 52.6786C46.023 52.6786 53.7316 52.3324 55.6664 52.2995C57.6164 52.2665 56.2758 53.0906 60.8461 52.9918C62.6742 52.9588 64.7309 52.8599 66.7418 52.7775C69.743 52.6621 72.668 52.5467 74.6637 52.6456C76.2328 52.728 76.6137 52.6456 77.025 51.7391C77.2535 51.2281 77.4059 50.5688 77.4973 49.893C77.6496 48.7557 77.6344 47.569 77.6344 46.8932C77.6648 45.2944 78 40.7287 78 35.6685ZM13.132 10.7137C13.8633 8.86767 16.057 5.15907 17.1234 4.49977C17.3824 4.33494 19.6523 3.56026 25.3348 3.14819C30.5602 2.76909 36.334 2.62074 39.0152 2.62074C41.6965 2.62074 47.4703 2.76909 52.6957 3.14819C58.3629 3.56026 60.6633 4.31846 60.907 4.49977C62.2781 5.52169 64.1672 8.86767 64.8984 10.7137C65.6297 12.5598 66.6047 16.186 66.4219 16.6805C66.2391 17.1749 66.6047 17.4222 64.1367 17.2079C61.684 17.0101 46.282 16.7958 39.0305 16.7958C31.7941 16.7958 16.3922 17.0101 13.9242 17.2079C11.4563 17.4057 11.8219 17.1749 11.6391 16.6805C11.4258 16.186 12.4008 12.5763 13.132 10.7137ZM18.7383 31.35C17.6414 31.6467 16.9863 32.2895 15.6152 32.273C14.2441 32.273 10.5422 31.5973 9.75 31.5643C8.95781 31.5313 8.25703 32.1412 7.8457 32.2566C7.43437 32.3719 6.62695 32.0588 5.4082 31.6467C4.18945 31.2346 3.47344 31.35 3.07734 29.5534C2.66602 27.7733 3.07734 25.2185 3.07734 25.2185C5.71289 25.0866 8.25703 25.3503 13.0254 26.8008C17.7937 28.2513 20.4445 31.0368 20.4445 31.0368C20.4445 31.0368 19.8352 31.0533 18.7383 31.35ZM54.5695 44.3384C52.391 44.6515 43.2656 44.7339 39 44.7339C34.7344 44.7339 25.609 44.635 23.4305 44.3384C21.2063 44.0252 18.3117 41.1407 20.3074 38.8496C23.0039 35.7344 22.5012 35.8333 28.6254 34.9762C33.927 34.2345 37.9488 34.2015 39 34.2015C40.0359 34.2015 44.073 34.251 49.3746 34.9762C55.4988 35.8333 54.9961 35.7344 57.6926 38.8496C59.6883 41.1407 56.7938 44.0252 54.5695 44.3384ZM74.9227 29.5699C74.5113 31.35 73.8105 31.2511 72.5918 31.6632C71.373 32.0753 70.5656 32.3719 70.1543 32.273C69.743 32.1742 69.0422 31.5643 68.25 31.5808C67.4578 31.6137 63.7559 32.2895 62.3848 32.2895C61.0137 32.2895 60.3586 31.6632 59.2617 31.3665C58.1648 31.0698 57.5555 31.0698 57.5555 31.0698C57.5555 31.0698 60.191 28.2678 64.9746 26.8338C69.743 25.3833 72.2871 25.1196 74.9227 25.2514C74.9227 25.2185 75.334 27.7733 74.9227 29.5699Z" fill="#A8A8AD"/>
</svg>
