<svg width="48" height="44" viewBox="0 0 48 44" fill="none" xmlns="http://www.w3.org/2000/svg">
<path d="M42.6667 0.625C44 0.625 45.1296 1.14583 46.0556 2.1875C46.9815 3.22917 47.4444 4.5 47.4444 6V38C47.4444 39.5 46.9815 40.7708 46.0556 41.8125C45.1296 42.8542 44 43.375 42.6667 43.375H4.77778C3.44444 43.375 2.31481 42.8542 1.38889 41.8125C0.462963 40.7708 0 39.5 0 38V6C0 4.5 0.462963 3.22917 1.38889 2.1875C2.31481 1.14583 3.44444 0.625 4.77778 0.625H42.6667ZM42.6667 38V22H4.77778V38H42.6667ZM42.6667 11.375V6H4.77778V11.375H42.6667Z" fill="#FDFBFB"/>
</svg>
