<svg width="18" height="20" viewBox="0 0 18 20" fill="none" xmlns="http://www.w3.org/2000/svg">
<path fill-rule="evenodd" clip-rule="evenodd" d="M5.49799 1.60498H12.5022C15.053 1.60498 16.493 3.1527 16.5005 5.88147V13.3754C16.5005 16.1033 15.053 17.6519 12.5022 17.6519H5.49799C2.94724 17.6519 1.50049 16.1033 1.50049 13.3754V5.88147C1.50049 3.1527 2.94724 1.60498 5.49799 1.60498ZM9.03729 14.3301C9.36054 14.3301 9.62979 14.0734 9.65979 13.7284V5.55251C9.68979 5.30378 9.57804 5.05426 9.37554 4.91866C9.16479 4.78226 8.90979 4.78226 8.70804 4.91866C8.50479 5.05426 8.39304 5.30378 8.41479 5.55251V13.7284C8.45304 14.0734 8.72229 14.3301 9.03729 14.3301ZM12.488 14.3302C12.803 14.3302 13.0723 14.0734 13.1105 13.7284V11.0967C13.1323 10.8392 13.0205 10.5993 12.8173 10.4629C12.6155 10.3265 12.3605 10.3265 12.1505 10.4629C11.9473 10.5993 11.8355 10.8392 11.8655 11.0967V13.7284C11.8955 14.0734 12.1648 14.3302 12.488 14.3302ZM6.16476 13.7284C6.13476 14.0734 5.86551 14.3302 5.54226 14.3302C5.21976 14.3302 4.94976 14.0734 4.92051 13.7284V8.1842C4.89801 7.93467 5.00976 7.68675 5.21301 7.55035C5.41476 7.41395 5.67051 7.41395 5.87301 7.55035C6.07476 7.68675 6.18801 7.93467 6.16476 8.1842V13.7284Z" fill="#A8A8AD"/>
</svg>
