<svg width="16" height="17" viewBox="0 0 16 17" fill="none" xmlns="http://www.w3.org/2000/svg">
<g id="Chat">
<path id="Chat_2" fill-rule="evenodd" clip-rule="evenodd" d="M0.5 8.92102C0.5 4.69435 3.6575 0.885529 8.015 0.885529C12.275 0.885529 15.5 4.62203 15.5 8.89691C15.5 13.8548 11.72 16.9324 8 16.9324C6.77 16.9324 5.405 16.5788 4.31 15.8878C3.9275 15.6387 3.605 15.4539 3.1925 15.5985L1.6775 16.0806C1.295 16.2092 0.95 15.8878 1.0625 15.4539L1.565 13.6539C1.6475 13.4048 1.6325 13.1397 1.5125 12.9307C0.8675 11.6611 0.5 10.271 0.5 8.92102ZM7.02491 8.92102C7.02491 9.49154 7.45241 9.94956 7.98491 9.9576C8.51741 9.9576 8.94491 9.49154 8.94491 8.92906C8.94491 8.35854 8.51741 7.90052 7.98491 7.90052C7.45991 7.89248 7.02491 8.35854 7.02491 8.92102ZM10.4825 8.92906C10.4825 9.49154 10.91 9.9576 11.4425 9.9576C11.975 9.9576 12.4025 9.49154 12.4025 8.92906C12.4025 8.35854 11.975 7.90052 11.4425 7.90052C10.91 7.90052 10.4825 8.35854 10.4825 8.92906ZM4.52758 9.9576C4.00258 9.9576 3.56758 9.49154 3.56758 8.92906C3.56758 8.35854 3.99508 7.90052 4.52758 7.90052C5.06008 7.90052 5.48758 8.35854 5.48758 8.92906C5.48758 9.49154 5.06008 9.94957 4.52758 9.9576Z" fill="#A8A8AD"/>
</g>
</svg>
