<svg width="15" height="17" viewBox="0 0 14 17" fill="none" xmlns="http://www.w3.org/2000/svg">
<path fill-rule="evenodd" clip-rule="evenodd" d="M3.8575 0.467163H10.1432C12.46 0.467163 13.75 1.89533 13.75 4.34248V12.6307C13.75 15.118 12.46 16.514 10.1432 16.514H3.8575C1.5775 16.514 0.25 15.118 0.25 12.6307V4.34248C0.25 1.89533 1.5775 0.467163 3.8575 0.467163ZM4.06011 4.20609V4.19806H6.30185C6.6251 4.19806 6.8876 4.47888 6.8876 4.82309C6.8876 5.17692 6.6251 5.45774 6.30185 5.45774H4.06011C3.73686 5.45774 3.47511 5.17692 3.47511 4.83192C3.47511 4.48691 3.73686 4.20609 4.06011 4.20609ZM4.06011 9.08433H9.9401C10.2626 9.08433 10.5251 8.80351 10.5251 8.45851C10.5251 8.1135 10.2626 7.83187 9.9401 7.83187H4.06011C3.73686 7.83187 3.47511 8.1135 3.47511 8.45851C3.47511 8.80351 3.73686 9.08433 4.06011 9.08433ZM4.06002 12.751H9.94002C10.2393 12.719 10.465 12.4454 10.465 12.1252C10.465 11.7963 10.2393 11.5235 9.94002 11.4914H4.06002C3.83502 11.4673 3.61752 11.5796 3.49752 11.7882C3.37752 11.9888 3.37752 12.2536 3.49752 12.4622C3.61752 12.6628 3.83502 12.7831 4.06002 12.751Z" fill="#A8A8AD"/>
</svg>
