<svg width="31" height="36" viewBox="0 0 31 36" fill="none" xmlns="http://www.w3.org/2000/svg">
<path d="M3.875 9H6.45833H27.125" stroke="#A30D11" stroke-width="2" stroke-linecap="round" stroke-linejoin="round"/>
<path d="M10.3335 9V6C10.3335 5.20435 10.6057 4.44129 11.0901 3.87868C11.5746 3.31607 12.2317 3 12.9168 3H18.0835C18.7686 3 19.4257 3.31607 19.9102 3.87868C20.3947 4.44129 20.6668 5.20435 20.6668 6V9M24.5418 9V30C24.5418 30.7956 24.2697 31.5587 23.7852 32.1213C23.3007 32.6839 22.6436 33 21.9585 33H9.04183C8.35669 33 7.69961 32.6839 7.21514 32.1213C6.73067 31.5587 6.4585 30.7956 6.4585 30V9H24.5418Z" stroke="#A30D11" stroke-width="2" stroke-linecap="round" stroke-linejoin="round"/>
<path d="M12.9165 16.5V25.5" stroke="#A30D11" stroke-width="2" stroke-linecap="round" stroke-linejoin="round"/>
<path d="M18.0835 16.5V25.5" stroke="#A30D11" stroke-width="2" stroke-linecap="round" stroke-linejoin="round"/>
</svg>
