<svg width="12" height="16" viewBox="0 0 12 16" fill="none" xmlns="http://www.w3.org/2000/svg">
<path id="Vector" d="M11.9938 6.68665C11.9938 5.19678 11.2004 3.94562 10.1486 3.66575V3.07309C10.1486 2.3652 9.90876 1.70669 9.48437 1.27866C9.05997 0.850634 8.53101 0.702471 8.0205 0.88356L1.25474 3.29534C0.516658 3.55874 0 4.45596 0 5.48488V7.89666C0 8.90911 0.504357 9.79809 1.23014 10.0697V13.2717C1.23014 14.5229 1.98667 15.5353 2.92158 15.5353H3.53665C4.47155 15.5353 5.22809 14.5229 5.22809 13.2717V11.4937L8.0205 12.4897C8.16812 12.5391 8.31574 12.5638 8.46335 12.5638C8.83239 12.5638 9.18913 12.3992 9.49052 12.0946C9.90877 11.6584 10.1548 11.0081 10.1548 10.3002V9.70755C11.2066 9.41945 12 8.17652 12 6.68665H11.9938ZM4.30548 13.2717C4.30548 13.8397 3.96105 14.3006 3.53665 14.3006H2.92158C2.49718 14.3006 2.15274 13.8397 2.15274 13.2717V10.399L4.30548 11.1645V13.2717ZM9.22604 10.3084C9.22604 10.6295 9.11533 10.9258 8.92465 11.1233C8.73398 11.3209 8.48796 11.3867 8.26038 11.3044L1.49462 8.89265C1.15633 8.76918 0.922604 8.36584 0.922604 7.89666V5.48488C0.922604 5.01569 1.15633 4.61235 1.49462 4.48888L8.26038 2.0771C8.32804 2.05241 8.39569 2.04418 8.46335 2.04418C8.62942 2.04418 8.79549 2.11826 8.93081 2.25819C9.12148 2.45574 9.23219 2.75207 9.23219 3.07309V10.3084H9.22604ZM10.1486 8.43169V4.94161C10.6838 5.19678 11.0712 5.87998 11.0712 6.68665C11.0712 7.49332 10.6838 8.17652 10.1486 8.43169Z" fill="#A8A8AD"/>
</svg>
