<svg width="25" height="25" viewBox="0 0 25 25" fill="none" xmlns="http://www.w3.org/2000/svg">
<path d="M12.5 0C5.6125 0 0 5.6125 0 12.5C0 19.3875 5.6125 25 12.5 25C19.3875 25 25 19.3875 25 12.5C25 5.6125 19.3875 0 12.5 0ZM17.9375 16.9625C17.7625 17.2625 17.45 17.425 17.125 17.425C16.9625 17.425 16.8 17.3875 16.65 17.2875L12.775 14.975C11.8125 14.4 11.1 13.1375 11.1 12.025V6.9C11.1 6.3875 11.525 5.9625 12.0375 5.9625C12.55 5.9625 12.975 6.3875 12.975 6.9V12.025C12.975 12.475 13.35 13.1375 13.7375 13.3625L17.6125 15.675C18.0625 15.9375 18.2125 16.5125 17.9375 16.9625Z" fill="#292D32"/>
</svg>
